# Blender v2.79 (sub 0) OBJ File: 'Rock_1.blend'
# www.blender.org
o Icosphère
v -0.000440 -0.317139 0.000502
v 0.224571 -0.155215 0.169966
v -0.090358 -0.153785 0.270875
v -0.285464 -0.154132 0.002906
v -0.090955 -0.155374 -0.264057
v 0.224510 -0.155378 -0.161551
v 0.073944 0.088883 0.269580
v -0.234186 0.109596 0.142950
v -0.243649 0.085032 -0.161916
v 0.069902 0.080534 -0.259929
v 0.266406 0.083144 0.006797
v -0.026990 0.223306 -0.019093
vt 0.413725 0.737208
vt 0.435358 0.471830
vt 0.650928 0.573991
vt 0.000000 0.764116
vt 0.021686 0.508550
vt 0.227669 0.577722
vt 0.650928 0.900260
vt 0.435285 1.000000
vt 0.663801 0.961000
vt 0.650928 0.703383
vt 0.874188 0.897323
vt 0.227669 0.868030
vt 0.532370 0.165584
vt 0.699374 0.000000
vt 0.775452 0.203404
vt 0.413725 0.406519
vt 0.614428 0.471830
vt 1.000000 0.000000
vt 1.000000 0.325125
vt 0.792535 0.170652
vt 0.874188 0.603288
vt 0.033956 0.993328
vt 0.813351 0.407789
vt 0.678053 0.471830
vt 0.413725 0.000000
vt 0.413725 0.245772
vt 0.209716 0.024994
vt 0.000000 0.151511
vt 0.180390 0.344200
vt 0.792535 0.471830
vt 0.329926 0.508550
vt 0.085727 0.455566
vn 0.1728 -0.8166 0.5508
vn 0.5840 -0.8118 0.0003
vn -0.4648 -0.8177 0.3395
vn -0.4694 -0.8157 -0.3382
vn 0.1811 -0.8103 -0.5574
vn 0.9849 -0.1729 -0.0001
vn 0.2983 -0.1970 0.9339
vn -0.7987 -0.1536 0.5817
vn -0.7820 -0.2551 -0.5686
vn 0.3034 -0.1905 -0.9336
vn 0.7834 0.2515 0.5683
vn -0.3544 0.2448 0.9025
vn -0.9830 0.1828 0.0158
vn -0.2887 0.2132 -0.9334
vn 0.7743 0.2685 -0.5731
vn 0.3955 0.8778 0.2705
vn -0.1278 0.8813 0.4550
vn -0.5121 0.8573 -0.0532
vn -0.1603 0.8195 -0.5503
vn 0.4308 0.8416 -0.3256
s off
f 1/1/1 2/2/1 3/3/1
f 2/4/2 1/5/2 6/6/2
f 1/1/3 3/3/3 4/7/3
f 1/1/4 4/7/4 5/8/4
f 1/9/5 5/10/5 6/11/5
f 2/4/6 6/6/6 11/12/6
f 3/13/7 2/14/7 7/15/7
f 4/16/8 3/13/8 8/17/8
f 5/18/9 4/19/9 9/20/9
f 6/11/10 5/10/10 10/21/10
f 2/4/11 11/12/11 7/22/11
f 3/13/12 7/15/12 8/17/12
f 4/19/13 8/23/13 9/20/13
f 5/10/14 9/24/14 10/21/14
f 6/25/15 10/26/15 11/27/15
f 7/28/16 11/27/16 12/29/16
f 8/17/17 7/15/17 12/30/17
f 9/31/18 8/32/18 12/29/18
f 10/26/19 9/31/19 12/29/19
f 11/27/20 10/26/20 12/29/20
